<?xml version="1.0" encoding="utf-8"?>
<!-- Generator: Adobe Illustrator 19.2.0, SVG Export Plug-In . SVG Version: 6.00 Build 0)  -->
<!DOCTYPE svg PUBLIC "-//W3C//DTD SVG 1.1//EN" "http://www.w3.org/Graphics/SVG/1.1/DTD/svg11.dtd">
<svg version="1.1" id="Layer_1" xmlns="http://www.w3.org/2000/svg" xmlns:xlink="http://www.w3.org/1999/xlink" x="0px" y="0px"
	 viewBox="0 0 103.4 67.1" style="enable-background:new 0 0 103.4 67.1;" xml:space="preserve">
<style type="text/css">
	.st0{fill:#FFFFFF;}
</style>
<g>
	<path class="st0" d="M14.3,0.5h-0.4c0,0.5-0.3,0.7-0.8,0.7C12,1.3,10.3,0,8.5,0C3.3,0,0.2,5,0.2,9.5c0,4.5,2.9,8.9,7.9,8.9
		c3,0,4.1-1.4,4.9-1.4c0.5,0,0.8,0.7,0.9,1h0.4v-6.1H14l-0.1,0.8c-0.3,2-2.2,5.2-5.4,5.2c-2.8,0-3.9-2.7-3.9-8.7
		c0-6.4,1.5-8.7,4-8.7c2.8,0,5,3.4,5.4,6h0.4V0.5z"/>
	<path class="st0" d="M22.8,15c0,1.3-0.8,2.5-1.9,2.5c-1.7,0-1.7-1.5-1.7-2.8c0-1.3,0.1-2.2,1.7-2.3l1.9-0.2V15z M27.9,15.9h-0.4
		c0,0.6-0.3,1.4-0.9,1.4c-0.4,0-0.6-0.5-0.6-1.2v-5.7c0-2.8-2.6-3.5-5.2-3.5c-2.5,0-4.3,1.2-4.3,2.6c0,0.9,0.5,1.6,1.6,1.6
		c0.9,0,1.5-0.6,1.5-1.5c0-1.2-1.2-1.1-1.3-1.5c0-0.5,1.4-0.7,2.2-0.7c1.8,0,2.1,0.9,2.1,2.4v2.1l-2.4,0.2c-2.2,0.2-4.7,0.8-4.7,3.3
		c0,2.1,1.9,3,3.8,3c1,0,2.7-0.4,3.3-1.5c0.4,1,1.4,1.5,2.5,1.5C26.9,18.3,27.9,17.3,27.9,15.9"/>
	<path class="st0" d="M28,18h7.4v-0.4h-2.3v-6.3c0-1.9,0.6-3.2,2.1-3.9h0.1c-0.4,0.4-0.6,0.8-0.6,1.5c0,1,0.7,1.6,1.7,1.6
		c1.2,0,1.9-0.9,1.9-1.8c0-1.2-0.8-1.9-1.9-1.9c-1.6,0-2.8,1.1-3.2,2.3h0V6.5c-0.5,0.6-2.3,0.6-3.3,0.6H28v0.4h1.7v9.9H28V18z"/>
	<path class="st0" d="M38.7,18h6.5v-0.4h-1.5v-6.7c0-1.3,1.2-3.1,2.6-3.1c0.7,0,1.5,0.3,1.5,2v7.8h-1.4V18H53v-0.4h-1.7v-6.9
		c0-2.7-1.1-3.8-3.5-3.8c-1.6,0-3.3,0.9-3.9,2.3h0V6.5c-0.5,0.6-2.3,0.6-3.3,0.6h-1.7v0.4h1.7v9.9h-1.7V18z"/>
	<path class="st0" d="M70.5,10.4c0,3-0.7,3.2-1.6,3.2c-1,0-1.5-0.3-1.5-3.3c0-2,0.2-3.1,1.5-3.1C70.1,7.3,70.5,7.6,70.5,10.4
		 M66.2,18.9h3.9c2.5,0,3.3,0.2,3.3,1.7c0,1.8-2.2,3.5-4.7,3.5c-2.2,0-3.4-1.5-3.5-2.7C65.2,20.3,65.6,19.6,66.2,18.9 M75.6,8
		c0-0.9-0.9-1.3-1.7-1.3c-0.8,0-1.4,0.5-1.9,1.1c-0.7-0.5-1.7-0.9-3.1-0.9c-2.1,0-4.3,1.4-4.3,3.6c0,1.4,0.7,2.4,2,3v0
		c-1,0.1-2.5,0.8-2.5,2.8c0,1.2,0.6,2.2,1.6,2.5v0c-1,0.3-2.1,1.3-2.1,2.4c0,1.8,2.1,3.2,4.9,3.2c3.4,0,5.7-2.3,5.7-5.3
		c0-2.4-1.2-3.5-3.6-3.4h-4.1c-0.6,0-1.5,0-1.5-0.7c0-0.6,1.1-1.3,2-1.3c0.3,0,0.5,0.1,0.8,0.1c0.3,0.1,0.6,0.1,1,0.1
		c2.1,0,4.4-1.2,4.4-3.5c0-0.8-0.4-1.9-1.1-2.5c0.4-0.4,0.7-1,1.6-1.1v0c-0.5,0.3-0.7,0.6-0.7,1.1c0,0.6,0.4,1.1,1.1,1.1
		C75.2,9.2,75.6,8.6,75.6,8"/>
	<path class="st0" d="M76,18h6.8v-0.4h-1.7v-11c-0.5,0.6-2.3,0.6-3.3,0.6H76v0.4h1.7v9.9H76V18z"/>
	<path class="st0" d="M77.6,3.3c0,1,0.8,1.8,1.8,1.8c1,0,1.8-0.8,1.8-1.8c0-1-0.8-1.8-1.8-1.8C78.4,1.6,77.6,2.3,77.6,3.3"/>
	<path class="st0" d="M86.5,11.6l-0.1-2.1c0-1.6,0.7-2.2,1.6-2.2c1.2,0,1.6,0.8,1.6,2.2v2.1H86.5z M86.4,12h6.8
		c0-2.7-2.5-5.2-5.1-5.2c-2.9,0-5.4,2.5-5.4,5.8c0,3.2,2.3,5.6,5.5,5.6c3,0,4.5-1.9,5.1-4.3h-0.4c-0.5,2.3-2,3.7-3.9,3.7
		c-2.3,0-2.5-1.9-2.5-3.6V12z"/>
	<path class="st0" d="M0,39.6h4.8v-0.4H4.4c-1.3,0-1.8-0.3-1.8-2.3v-14h0l5.9,16.7h0.7l5.7-16.4h0v16h-2.1v0.4h7.8v-0.4h-1.8V22.7
		h1.8v-0.4h-5.9l-4.2,11.9h0L6.4,22.3H0.1v0.4H2v14.3c0,1.1-0.2,2.1-1.9,2.1H0V39.6z"/>
	<path class="st0" d="M24.1,33.2v-2.1c0-1.6,0.7-2.2,1.6-2.2c1.2,0,1.6,0.8,1.6,2.2v2.1H24.1z M24.1,33.7h6.8c0-2.7-2.5-5.2-5.1-5.2
		c-2.9,0-5.4,2.5-5.4,5.8c0,3.2,2.3,5.6,5.5,5.6c3,0,4.5-1.9,5.1-4.3h-0.4c-0.5,2.3-2,3.7-3.9,3.7c-2.3,0-2.5-1.9-2.5-3.6V33.7z"/>
	<path class="st0" d="M31,39.6h6.8v-0.4h-1.7V21.5c-0.4,0.7-1.8,0.7-3.5,0.7H31v0.4h1.7v16.4H31V39.6z"/>
	<path class="st0" d="M38.2,39.6H45v-0.4h-1.7V21.5c-0.4,0.7-1.8,0.7-3.5,0.7h-1.5v0.4h1.7v16.4h-1.7V39.6z"/>
	<path class="st0" d="M52.7,36.9c0,1.8-0.8,2.6-2,2.6c-1.3,0-2-0.8-2-2.6v-5.3c0-1.8,0.8-2.6,2-2.6c1.3,0,2,0.8,2,2.6V36.9z
		 M56.5,34.2c0-3.4-2.6-5.7-5.9-5.7c-3.2,0-5.9,2.3-5.9,5.7c0,3.4,2.6,5.7,5.9,5.7C53.9,39.9,56.5,37.6,56.5,34.2"/>
	<path class="st0" d="M56.4,39.6h6.5v-0.4h-1.5v-6.7c0-1.3,1.2-3.1,2.6-3.1c0.7,0,1.5,0.3,1.5,2v7.8h-1.4v0.4h6.5v-0.4H69v-6.9
		c0-2.7-1.1-3.8-3.5-3.8c-1.6,0-3.3,0.9-3.9,2.3h0v-2.6c-0.5,0.6-2.3,0.6-3.3,0.6h-1.7v0.4h1.7v9.9h-1.7V39.6z"/>
	<path class="st0" d="M0,43.9H2v11.2c0,3.8,2.6,6.1,6.6,6.1c4.5,0,6.5-2.4,6.5-6V46c0-1.4,0.4-2.1,1.3-2.1H17v-0.4h-4.9v0.4h0.7
		c1.3,0,1.6,0.6,1.6,2.1v9.4c0,3.3-2,5-4.4,5c-3.6,0-4.3-2.4-4.3-5.6V43.9h2v-0.4H0V43.9z"/>
	<path class="st0" d="M16.1,60.8h6.5v-0.4h-1.5v-6.7c0-1.3,1.2-3.1,2.6-3.1c0.7,0,1.5,0.3,1.5,2v7.8h-1.4v0.4h6.5v-0.4h-1.7v-6.9
		c0-2.7-1.1-3.8-3.5-3.8c-1.6,0-3.3,0.9-3.9,2.3h0v-2.6C20.6,50,18.8,50,17.8,50h-1.7v0.4h1.7v9.9h-1.7V60.8z"/>
	<path class="st0" d="M30.7,60.8h6.8v-0.4h-1.7v-11C35.3,50,33.4,50,32.4,50h-1.7v0.4h1.7v9.9h-1.7V60.8z"/>
	<path class="st0" d="M32.3,46.2c0,1,0.8,1.8,1.8,1.8c1,0,1.8-0.8,1.8-1.8c0-1-0.8-1.8-1.8-1.8C33.1,44.4,32.3,45.2,32.3,46.2"/>
	<path class="st0" d="M42.5,61.1h0.7l3.6-8.6c0.6-1.4,1.1-2,1.7-2.1h0.2V50h-3.8v0.4h0.5c0.7,0,1.1,0.3,1.1,0.9
		c0,0.4-0.1,0.9-0.4,1.6l-1.7,3.9l-2.9-6.5H43V50h-6.2v0.4h1.1L42.5,61.1z"/>
	<path class="st0" d="M51.6,54.4v-2.1c0-1.6,0.7-2.2,1.5-2.2c1.2,0,1.6,0.8,1.6,2.2v2.1H51.6z M51.6,54.8h6.8c0-2.7-2.5-5.2-5.1-5.2
		c-2.9,0-5.4,2.5-5.4,5.8c0,3.2,2.3,5.6,5.5,5.6c3,0,4.5-1.9,5.1-4.3H58c-0.5,2.3-2,3.7-3.9,3.7c-2.3,0-2.5-1.9-2.5-3.6V54.8z"/>
	<path class="st0" d="M58.4,60.8h7.4v-0.4h-2.3v-6.3c0-1.9,0.6-3.2,2.1-3.9h0.1c-0.4,0.4-0.6,0.8-0.6,1.5c0,1,0.7,1.6,1.7,1.6
		c1.2,0,1.9-0.9,1.9-1.8c0-1.2-0.8-1.9-1.9-1.9c-1.6,0-2.8,1.1-3.2,2.3h0v-2.5C63,50,61.2,50,60.1,50h-1.7v0.4h1.7v9.9h-1.7V60.8z"
		/>
	<path class="st0" d="M69.3,61.1h0.4c0.1-0.4,0.5-0.6,1-0.6c0.6,0,1.4,0.6,2.8,0.6c2.3,0,3.9-2,3.9-4c0-3-2.1-3.2-4.7-3.6
		c-1.4-0.2-2.2-0.4-2.2-1.5c0-1.2,1-1.8,2.3-1.8c1.8,0,2.8,1.5,3.4,3.1h0.4l-0.1-3.5h-0.4c0,0.3-0.3,0.5-0.8,0.5
		c-0.8,0-1.4-0.5-2.6-0.5c-2.5,0-3.7,2.1-3.7,3.7c0,3.2,2.4,3.4,4.3,3.7c1.8,0.2,2.5,0.4,2.5,1.5c0,1.3-1.1,2.1-2.4,2.1
		c-1.9,0-3.4-1.9-3.8-3.7h-0.4V61.1z"/>
	<path class="st0" d="M77.9,60.8h6.8v-0.4H83v-11C82.5,50,80.6,50,79.6,50h-1.7v0.4h1.7v9.9h-1.7V60.8z"/>
	<path class="st0" d="M79.5,46.2c0,1,0.8,1.8,1.8,1.8c1,0,1.8-0.8,1.8-1.8c0-1-0.8-1.8-1.8-1.8C80.3,44.4,79.5,45.2,79.5,46.2"/>
	<path class="st0" d="M85.9,50.4v7.9c0,2.3,2,2.8,2.7,2.8c1.5,0,2.5-0.6,3.3-1.9L91.5,59c-0.3,0.4-0.7,1-1.3,1c-0.6,0-1-0.5-1-1.3
		v-8.4h2.3V50h-2.3v-5.3h-0.4c0,2.6-1.8,5.3-4.3,5.3v0.4H85.9z"/>
	<path class="st0" d="M91.4,50.4h1l4.7,11l-0.1,1c-0.1,0.7-0.6,3.5-1.4,3.8V66c0.1-0.3,0.1-0.6,0.1-0.8c0-0.8-0.6-1.5-1.6-1.5
		c-1.1,0-1.6,0.7-1.6,1.7c0,1,0.9,1.7,2,1.7c1.9,0,2.4-2.1,2.7-3.2l0.7-3l1.3-3.2l2.4-5.5c0.5-1.3,1-1.8,1.6-1.8h0.2V50h-3.8v0.4
		h0.5c0.8,0,1.1,0.4,1.1,0.9c0,0.5-0.3,1.3-0.7,2.2L99,56.9l-2.9-6.5h1.6V50h-6.3V50.4z"/>
	<path class="st0" d="M56.9,11.6l-0.1-2.1c0-1.6,0.7-2.2,1.6-2.2c1.2,0,1.6,0.8,1.6,2.2v2.1H56.9z M56.9,12h6.8
		c0-2.7-2.5-5.2-5.1-5.2c-2.9,0-5.4,2.5-5.4,5.8c0,3.2,2.3,5.6,5.5,5.6c3,0,4.5-1.9,5.1-4.3h-0.4c-0.5,2.3-2,3.7-3.9,3.7
		c-2.3,0-2.5-1.9-2.5-3.6V12z"/>
</g>
</svg>
